<svg xmlns="http://www.w3.org/2000/svg" viewBox="-20 -20 1040 520" width="1040" height="520">
<style>@keyframes ls0{0%,0.00%{stroke-dashoffset:1;animation-timing-function:linear}0.83%,88%{stroke-dashoffset:0}96%,100%{stroke-dashoffset:0}}
@keyframes ls1{0%,0.83%{stroke-dashoffset:1;animation-timing-function:linear}1.67%,88%{stroke-dashoffset:0}96%,100%{stroke-dashoffset:0}}
@keyframes ls2{0%,1.67%{stroke-dashoffset:1;animation-timing-function:linear}2.50%,88%{stroke-dashoffset:0}96%,100%{stroke-dashoffset:0}}
@keyframes ls3{0%,2.50%{stroke-dashoffset:1;animation-timing-function:linear}3.33%,88%{stroke-dashoffset:0}96%,100%{stroke-dashoffset:0}}
@keyframes ls4{0%,3.33%{stroke-dashoffset:1;animation-timing-function:linear}4.17%,88%{stroke-dashoffset:0}96%,100%{stroke-dashoffset:0}}
@keyframes ls5{0%,4.17%{stroke-dashoffset:1;animation-timing-function:linear}5.00%,88%{stroke-dashoffset:0}96%,100%{stroke-dashoffset:0}}
@keyframes ls6{0%,5.00%{stroke-dashoffset:1;animation-timing-function:linear}5.83%,88%{stroke-dashoffset:0}96%,100%{stroke-dashoffset:0}}
@keyframes ls7{0%,5.83%{stroke-dashoffset:1;animation-timing-function:linear}6.67%,88%{stroke-dashoffset:0}96%,100%{stroke-dashoffset:0}}
@keyframes ls8{0%,6.67%{stroke-dashoffset:1;animation-timing-function:linear}7.50%,88%{stroke-dashoffset:0}96%,100%{stroke-dashoffset:0}}
@keyframes ls9{0%,7.50%{stroke-dashoffset:1;animation-timing-function:linear}8.33%,88%{stroke-dashoffset:0}96%,100%{stroke-dashoffset:0}}
@keyframes ls10{0%,8.33%{stroke-dashoffset:1;animation-timing-function:linear}9.17%,88%{stroke-dashoffset:0}96%,100%{stroke-dashoffset:0}}
@keyframes ls11{0%,9.17%{stroke-dashoffset:1;animation-timing-function:linear}10.00%,88%{stroke-dashoffset:0}96%,100%{stroke-dashoffset:0}}
@keyframes ls12{0%,10.00%{stroke-dashoffset:1;animation-timing-function:linear}10.83%,88%{stroke-dashoffset:0}96%,100%{stroke-dashoffset:0}}
@keyframes ls13{0%,10.83%{stroke-dashoffset:1;animation-timing-function:linear}11.67%,88%{stroke-dashoffset:0}96%,100%{stroke-dashoffset:0}}
@keyframes ls14{0%,11.67%{stroke-dashoffset:1;animation-timing-function:linear}12.50%,88%{stroke-dashoffset:0}96%,100%{stroke-dashoffset:0}}
@keyframes ls15{0%,12.50%{stroke-dashoffset:1;animation-timing-function:linear}13.33%,88%{stroke-dashoffset:0}96%,100%{stroke-dashoffset:0}}
@keyframes ls16{0%,13.33%{stroke-dashoffset:1;animation-timing-function:linear}14.17%,88%{stroke-dashoffset:0}96%,100%{stroke-dashoffset:0}}
@keyframes ls17{0%,14.17%{stroke-dashoffset:1;animation-timing-function:linear}15.00%,88%{stroke-dashoffset:0}96%,100%{stroke-dashoffset:0}}
@keyframes ls18{0%,15.00%{stroke-dashoffset:1;animation-timing-function:linear}15.83%,88%{stroke-dashoffset:0}96%,100%{stroke-dashoffset:0}}
@keyframes ls19{0%,15.83%{stroke-dashoffset:1;animation-timing-function:linear}16.67%,88%{stroke-dashoffset:0}96%,100%{stroke-dashoffset:0}}
@keyframes ls20{0%,16.67%{stroke-dashoffset:1;animation-timing-function:linear}17.50%,88%{stroke-dashoffset:0}96%,100%{stroke-dashoffset:0}}
@keyframes ls21{0%,17.50%{stroke-dashoffset:1;animation-timing-function:linear}18.33%,88%{stroke-dashoffset:0}96%,100%{stroke-dashoffset:0}}
@keyframes ls22{0%,18.33%{stroke-dashoffset:1;animation-timing-function:linear}19.17%,88%{stroke-dashoffset:0}96%,100%{stroke-dashoffset:0}}
@keyframes ls23{0%,19.17%{stroke-dashoffset:1;animation-timing-function:linear}20.00%,88%{stroke-dashoffset:0}96%,100%{stroke-dashoffset:0}}
@keyframes lringrot{0%,0.00%{transform:rotate(-60deg);animation-timing-function:cubic-bezier(0,0,.2,1)}25.00%,88%{transform:rotate(0deg)}96%,100%{transform:rotate(0deg)}}
.lring{animation:lringrot 2800ms infinite}
@keyframes llet{0%,8.93%{stroke-dashoffset:1;animation-timing-function:cubic-bezier(.4,0,.2,1)}23.21%,88%{stroke-dashoffset:0}96%,100%{stroke-dashoffset:0}}
@keyframes lbolt{0%,20.00%{transform:scale(0);animation-timing-function:cubic-bezier(.34,1.7,.64,1)}31.43%,88%{transform:scale(1)}96%,100%{transform:scale(1)}}
@keyframes lfade{0%,90%{opacity:1}98%,100%{opacity:0}}.lall{animation:lfade 2800ms infinite}
@keyframes ds0{0%,0.00%{stroke-dashoffset:1;animation-timing-function:linear}0.83%,88%{stroke-dashoffset:0}96%,100%{stroke-dashoffset:0}}
@keyframes ds1{0%,0.83%{stroke-dashoffset:1;animation-timing-function:linear}1.67%,88%{stroke-dashoffset:0}96%,100%{stroke-dashoffset:0}}
@keyframes ds2{0%,1.67%{stroke-dashoffset:1;animation-timing-function:linear}2.50%,88%{stroke-dashoffset:0}96%,100%{stroke-dashoffset:0}}
@keyframes ds3{0%,2.50%{stroke-dashoffset:1;animation-timing-function:linear}3.33%,88%{stroke-dashoffset:0}96%,100%{stroke-dashoffset:0}}
@keyframes ds4{0%,3.33%{stroke-dashoffset:1;animation-timing-function:linear}4.17%,88%{stroke-dashoffset:0}96%,100%{stroke-dashoffset:0}}
@keyframes ds5{0%,4.17%{stroke-dashoffset:1;animation-timing-function:linear}5.00%,88%{stroke-dashoffset:0}96%,100%{stroke-dashoffset:0}}
@keyframes ds6{0%,5.00%{stroke-dashoffset:1;animation-timing-function:linear}5.83%,88%{stroke-dashoffset:0}96%,100%{stroke-dashoffset:0}}
@keyframes ds7{0%,5.83%{stroke-dashoffset:1;animation-timing-function:linear}6.67%,88%{stroke-dashoffset:0}96%,100%{stroke-dashoffset:0}}
@keyframes ds8{0%,6.67%{stroke-dashoffset:1;animation-timing-function:linear}7.50%,88%{stroke-dashoffset:0}96%,100%{stroke-dashoffset:0}}
@keyframes ds9{0%,7.50%{stroke-dashoffset:1;animation-timing-function:linear}8.33%,88%{stroke-dashoffset:0}96%,100%{stroke-dashoffset:0}}
@keyframes ds10{0%,8.33%{stroke-dashoffset:1;animation-timing-function:linear}9.17%,88%{stroke-dashoffset:0}96%,100%{stroke-dashoffset:0}}
@keyframes ds11{0%,9.17%{stroke-dashoffset:1;animation-timing-function:linear}10.00%,88%{stroke-dashoffset:0}96%,100%{stroke-dashoffset:0}}
@keyframes ds12{0%,10.00%{stroke-dashoffset:1;animation-timing-function:linear}10.83%,88%{stroke-dashoffset:0}96%,100%{stroke-dashoffset:0}}
@keyframes ds13{0%,10.83%{stroke-dashoffset:1;animation-timing-function:linear}11.67%,88%{stroke-dashoffset:0}96%,100%{stroke-dashoffset:0}}
@keyframes ds14{0%,11.67%{stroke-dashoffset:1;animation-timing-function:linear}12.50%,88%{stroke-dashoffset:0}96%,100%{stroke-dashoffset:0}}
@keyframes ds15{0%,12.50%{stroke-dashoffset:1;animation-timing-function:linear}13.33%,88%{stroke-dashoffset:0}96%,100%{stroke-dashoffset:0}}
@keyframes ds16{0%,13.33%{stroke-dashoffset:1;animation-timing-function:linear}14.17%,88%{stroke-dashoffset:0}96%,100%{stroke-dashoffset:0}}
@keyframes ds17{0%,14.17%{stroke-dashoffset:1;animation-timing-function:linear}15.00%,88%{stroke-dashoffset:0}96%,100%{stroke-dashoffset:0}}
@keyframes ds18{0%,15.00%{stroke-dashoffset:1;animation-timing-function:linear}15.83%,88%{stroke-dashoffset:0}96%,100%{stroke-dashoffset:0}}
@keyframes ds19{0%,15.83%{stroke-dashoffset:1;animation-timing-function:linear}16.67%,88%{stroke-dashoffset:0}96%,100%{stroke-dashoffset:0}}
@keyframes ds20{0%,16.67%{stroke-dashoffset:1;animation-timing-function:linear}17.50%,88%{stroke-dashoffset:0}96%,100%{stroke-dashoffset:0}}
@keyframes ds21{0%,17.50%{stroke-dashoffset:1;animation-timing-function:linear}18.33%,88%{stroke-dashoffset:0}96%,100%{stroke-dashoffset:0}}
@keyframes ds22{0%,18.33%{stroke-dashoffset:1;animation-timing-function:linear}19.17%,88%{stroke-dashoffset:0}96%,100%{stroke-dashoffset:0}}
@keyframes ds23{0%,19.17%{stroke-dashoffset:1;animation-timing-function:linear}20.00%,88%{stroke-dashoffset:0}96%,100%{stroke-dashoffset:0}}
@keyframes dringrot{0%,0.00%{transform:rotate(-60deg);animation-timing-function:cubic-bezier(0,0,.2,1)}25.00%,88%{transform:rotate(0deg)}96%,100%{transform:rotate(0deg)}}
.dring{animation:dringrot 2800ms infinite}
@keyframes dlet{0%,8.93%{stroke-dashoffset:1;animation-timing-function:cubic-bezier(.4,0,.2,1)}23.21%,88%{stroke-dashoffset:0}96%,100%{stroke-dashoffset:0}}
@keyframes dbolt{0%,20.00%{transform:scale(0);animation-timing-function:cubic-bezier(.34,1.7,.64,1)}31.43%,88%{transform:scale(1)}96%,100%{transform:scale(1)}}
@keyframes dfade{0%,90%{opacity:1}98%,100%{opacity:0}}.dall{animation:dfade 2800ms infinite}
</style><rect x="-20" y="-20" width="1040" height="520" fill="#9AA3B5"/><g transform="translate(0,0)"><rect width="480" height="480" rx="40" fill="#FFFFFF"/><circle cx="240" cy="240" r="160" fill="none" stroke="#1A4FB8" stroke-opacity=".12" stroke-dasharray="4 8"/><g class="lall" transform="translate(240,240) scale(0.829) translate(-256,-256)"><g class="lring" style="transform-origin:256px 256px"><path d="M261.59,78.09A178,178 0 0 1 296.65,82.70" pathLength="1" stroke-dasharray="1 1" fill="none" stroke-width="30" stroke="#FFB800" style="animation:ls0 2800ms infinite"/><path d="M307.45,85.60A178,178 0 0 1 340.11,99.13" pathLength="1" stroke-dasharray="1 1" fill="none" stroke-width="30" stroke="#FFB800" style="animation:ls1 2800ms infinite"/><path d="M349.80,104.72A178,178 0 0 1 377.85,126.24" pathLength="1" stroke-dasharray="1 1" fill="none" stroke-width="30" stroke="#FFB800" style="animation:ls2 2800ms infinite"/><path d="M385.76,134.15A178,178 0 0 1 407.28,162.20" pathLength="1" stroke-dasharray="1 1" fill="none" stroke-width="30" stroke="#FFB800" style="animation:ls3 2800ms infinite"/><path d="M412.87,171.89A178,178 0 0 1 426.40,204.55" pathLength="1" stroke-dasharray="1 1" fill="none" stroke-width="30" stroke="#FFB800" style="animation:ls4 2800ms infinite"/><path d="M429.30,215.35A178,178 0 0 1 433.91,250.41" pathLength="1" stroke-dasharray="1 1" fill="none" stroke-width="30" stroke="#FFB800" style="animation:ls5 2800ms infinite"/><path d="M433.91,261.59A178,178 0 0 1 429.30,296.65" pathLength="1" stroke-dasharray="1 1" fill="none" stroke-width="30" stroke="#FFB800" style="animation:ls6 2800ms infinite"/><path d="M426.40,307.45A178,178 0 0 1 412.87,340.11" pathLength="1" stroke-dasharray="1 1" fill="none" stroke-width="30" stroke="#FFB800" style="animation:ls7 2800ms infinite"/><path d="M407.28,349.80A178,178 0 0 1 385.76,377.85" pathLength="1" stroke-dasharray="1 1" fill="none" stroke-width="30" stroke="#FFB800" style="animation:ls8 2800ms infinite"/><path d="M377.85,385.76A178,178 0 0 1 349.80,407.28" pathLength="1" stroke-dasharray="1 1" fill="none" stroke-width="30" stroke="#FFB800" style="animation:ls9 2800ms infinite"/><path d="M340.11,412.87A178,178 0 0 1 307.45,426.40" pathLength="1" stroke-dasharray="1 1" fill="none" stroke-width="30" stroke="#FFB800" style="animation:ls10 2800ms infinite"/><path d="M296.65,429.30A178,178 0 0 1 261.59,433.91" pathLength="1" stroke-dasharray="1 1" fill="none" stroke-width="30" stroke="#FFB800" style="animation:ls11 2800ms infinite"/><path d="M250.41,433.91A178,178 0 0 1 215.35,429.30" pathLength="1" stroke-dasharray="1 1" fill="none" stroke-width="30" stroke="#FFB800" style="animation:ls12 2800ms infinite"/><path d="M204.55,426.40A178,178 0 0 1 171.89,412.87" pathLength="1" stroke-dasharray="1 1" fill="none" stroke-width="30" stroke="#1A4FB833" style="animation:ls13 2800ms infinite"/><path d="M162.20,407.28A178,178 0 0 1 134.15,385.76" pathLength="1" stroke-dasharray="1 1" fill="none" stroke-width="30" stroke="#1A4FB833" style="animation:ls14 2800ms infinite"/><path d="M126.24,377.85A178,178 0 0 1 104.72,349.80" pathLength="1" stroke-dasharray="1 1" fill="none" stroke-width="30" stroke="#1A4FB833" style="animation:ls15 2800ms infinite"/><path d="M99.13,340.11A178,178 0 0 1 85.60,307.45" pathLength="1" stroke-dasharray="1 1" fill="none" stroke-width="30" stroke="#1A4FB833" style="animation:ls16 2800ms infinite"/><path d="M82.70,296.65A178,178 0 0 1 78.09,261.59" pathLength="1" stroke-dasharray="1 1" fill="none" stroke-width="30" stroke="#FFB800" style="animation:ls17 2800ms infinite"/><path d="M78.09,250.41A178,178 0 0 1 82.70,215.35" pathLength="1" stroke-dasharray="1 1" fill="none" stroke-width="30" stroke="#FFB800" style="animation:ls18 2800ms infinite"/><path d="M85.60,204.55A178,178 0 0 1 99.13,171.89" pathLength="1" stroke-dasharray="1 1" fill="none" stroke-width="30" stroke="#FFB800" style="animation:ls19 2800ms infinite"/><path d="M104.72,162.20A178,178 0 0 1 126.24,134.15" pathLength="1" stroke-dasharray="1 1" fill="none" stroke-width="30" stroke="#FFB800" style="animation:ls20 2800ms infinite"/><path d="M134.15,126.24A178,178 0 0 1 162.20,104.72" pathLength="1" stroke-dasharray="1 1" fill="none" stroke-width="30" stroke="#FFB800" style="animation:ls21 2800ms infinite"/><path d="M171.89,99.13A178,178 0 0 1 204.55,85.60" pathLength="1" stroke-dasharray="1 1" fill="none" stroke-width="30" stroke="#FFB800" style="animation:ls22 2800ms infinite"/><path d="M215.35,82.70A178,178 0 0 1 250.41,78.09" pathLength="1" stroke-dasharray="1 1" fill="none" stroke-width="30" stroke="#FFB800" style="animation:ls23 2800ms infinite"/></g><path d="M320.24,184.66A96,96 0 1 0 320.24,327.34" pathLength="1" stroke-dasharray="1 1" fill="none" stroke="#1A4FB8" stroke-width="36" stroke-linecap="round" style="animation:llet 2800ms infinite"/><path d="M160.0,256.0L251.0,227.4L247.5,250.8L335.0,232.6L237.0,284.6L240.5,263.8L160.0,279.4Z" fill="#FFB800" stroke="#FFB800" stroke-width="8" stroke-linejoin="round" style="transform-origin:168px 256px;animation:lbolt 2800ms infinite"/></g></g><g transform="translate(520,0)"><rect width="480" height="480" rx="40" fill="#0E1630"/><circle cx="240" cy="240" r="160" fill="none" stroke="#FFFFFF" stroke-opacity=".12" stroke-dasharray="4 8"/><g class="dall" transform="translate(240,240) scale(0.829) translate(-256,-256)"><g class="dring" style="transform-origin:256px 256px"><path d="M261.59,78.09A178,178 0 0 1 296.65,82.70" pathLength="1" stroke-dasharray="1 1" fill="none" stroke-width="30" stroke="#FFC929" style="animation:ds0 2800ms infinite"/><path d="M307.45,85.60A178,178 0 0 1 340.11,99.13" pathLength="1" stroke-dasharray="1 1" fill="none" stroke-width="30" stroke="#FFC929" style="animation:ds1 2800ms infinite"/><path d="M349.80,104.72A178,178 0 0 1 377.85,126.24" pathLength="1" stroke-dasharray="1 1" fill="none" stroke-width="30" stroke="#FFC929" style="animation:ds2 2800ms infinite"/><path d="M385.76,134.15A178,178 0 0 1 407.28,162.20" pathLength="1" stroke-dasharray="1 1" fill="none" stroke-width="30" stroke="#FFC929" style="animation:ds3 2800ms infinite"/><path d="M412.87,171.89A178,178 0 0 1 426.40,204.55" pathLength="1" stroke-dasharray="1 1" fill="none" stroke-width="30" stroke="#FFC929" style="animation:ds4 2800ms infinite"/><path d="M429.30,215.35A178,178 0 0 1 433.91,250.41" pathLength="1" stroke-dasharray="1 1" fill="none" stroke-width="30" stroke="#FFC929" style="animation:ds5 2800ms infinite"/><path d="M433.91,261.59A178,178 0 0 1 429.30,296.65" pathLength="1" stroke-dasharray="1 1" fill="none" stroke-width="30" stroke="#FFC929" style="animation:ds6 2800ms infinite"/><path d="M426.40,307.45A178,178 0 0 1 412.87,340.11" pathLength="1" stroke-dasharray="1 1" fill="none" stroke-width="30" stroke="#FFC929" style="animation:ds7 2800ms infinite"/><path d="M407.28,349.80A178,178 0 0 1 385.76,377.85" pathLength="1" stroke-dasharray="1 1" fill="none" stroke-width="30" stroke="#FFC929" style="animation:ds8 2800ms infinite"/><path d="M377.85,385.76A178,178 0 0 1 349.80,407.28" pathLength="1" stroke-dasharray="1 1" fill="none" stroke-width="30" stroke="#FFC929" style="animation:ds9 2800ms infinite"/><path d="M340.11,412.87A178,178 0 0 1 307.45,426.40" pathLength="1" stroke-dasharray="1 1" fill="none" stroke-width="30" stroke="#FFC929" style="animation:ds10 2800ms infinite"/><path d="M296.65,429.30A178,178 0 0 1 261.59,433.91" pathLength="1" stroke-dasharray="1 1" fill="none" stroke-width="30" stroke="#FFC929" style="animation:ds11 2800ms infinite"/><path d="M250.41,433.91A178,178 0 0 1 215.35,429.30" pathLength="1" stroke-dasharray="1 1" fill="none" stroke-width="30" stroke="#FFC929" style="animation:ds12 2800ms infinite"/><path d="M204.55,426.40A178,178 0 0 1 171.89,412.87" pathLength="1" stroke-dasharray="1 1" fill="none" stroke-width="30" stroke="#FFFFFF2E" style="animation:ds13 2800ms infinite"/><path d="M162.20,407.28A178,178 0 0 1 134.15,385.76" pathLength="1" stroke-dasharray="1 1" fill="none" stroke-width="30" stroke="#FFFFFF2E" style="animation:ds14 2800ms infinite"/><path d="M126.24,377.85A178,178 0 0 1 104.72,349.80" pathLength="1" stroke-dasharray="1 1" fill="none" stroke-width="30" stroke="#FFFFFF2E" style="animation:ds15 2800ms infinite"/><path d="M99.13,340.11A178,178 0 0 1 85.60,307.45" pathLength="1" stroke-dasharray="1 1" fill="none" stroke-width="30" stroke="#FFFFFF2E" style="animation:ds16 2800ms infinite"/><path d="M82.70,296.65A178,178 0 0 1 78.09,261.59" pathLength="1" stroke-dasharray="1 1" fill="none" stroke-width="30" stroke="#FFC929" style="animation:ds17 2800ms infinite"/><path d="M78.09,250.41A178,178 0 0 1 82.70,215.35" pathLength="1" stroke-dasharray="1 1" fill="none" stroke-width="30" stroke="#FFC929" style="animation:ds18 2800ms infinite"/><path d="M85.60,204.55A178,178 0 0 1 99.13,171.89" pathLength="1" stroke-dasharray="1 1" fill="none" stroke-width="30" stroke="#FFC929" style="animation:ds19 2800ms infinite"/><path d="M104.72,162.20A178,178 0 0 1 126.24,134.15" pathLength="1" stroke-dasharray="1 1" fill="none" stroke-width="30" stroke="#FFC929" style="animation:ds20 2800ms infinite"/><path d="M134.15,126.24A178,178 0 0 1 162.20,104.72" pathLength="1" stroke-dasharray="1 1" fill="none" stroke-width="30" stroke="#FFC929" style="animation:ds21 2800ms infinite"/><path d="M171.89,99.13A178,178 0 0 1 204.55,85.60" pathLength="1" stroke-dasharray="1 1" fill="none" stroke-width="30" stroke="#FFC929" style="animation:ds22 2800ms infinite"/><path d="M215.35,82.70A178,178 0 0 1 250.41,78.09" pathLength="1" stroke-dasharray="1 1" fill="none" stroke-width="30" stroke="#FFC929" style="animation:ds23 2800ms infinite"/></g><path d="M320.24,184.66A96,96 0 1 0 320.24,327.34" pathLength="1" stroke-dasharray="1 1" fill="none" stroke="#FFFFFF" stroke-width="36" stroke-linecap="round" style="animation:dlet 2800ms infinite"/><path d="M160.0,256.0L251.0,227.4L247.5,250.8L335.0,232.6L237.0,284.6L240.5,263.8L160.0,279.4Z" fill="#FFC929" stroke="#FFC929" stroke-width="8" stroke-linejoin="round" style="transform-origin:168px 256px;animation:dbolt 2800ms infinite"/></g></g></svg>